<svg id="Layer_1" data-name="Layer 1" xmlns="http://www.w3.org/2000/svg" xmlns:xlink="http://www.w3.org/1999/xlink" viewBox="0 0 458.49 103.68"><defs><style>.cls-1{fill:#4a4a4a;}</style><symbol id="pokebag_logotype" data-name="pokebag logotype" viewBox="0 0 458.49 103.68"><path class="cls-1" d="M27,7.49c18.89,0,30.23,10.26,30.23,25.7S45.88,58.88,27,58.88H22.56V80.47A1.67,1.67,0,0,1,20.83,82H1.51A1.62,1.62,0,0,1,0,80.47V9.11A1.65,1.65,0,0,1,1.51,7.49Zm1,32.07a6.07,6.07,0,0,0,6.37-6.37A6.06,6.06,0,0,0,28,26.82H22.35V39.56Z"/><path class="cls-1" d="M125.66,52.29c0,18.79-12.74,31.31-31.74,31.31S62.18,71.08,62.18,52.4,74.92,21.1,93.92,21.1,125.66,33.62,125.66,52.29Zm-42.43.11c0,7,4.32,11.77,10.69,11.77s10.69-4.75,10.69-11.88-4.32-11.76-10.69-11.76S83.23,45.28,83.23,52.4Z"/><path class="cls-1" d="M154.48,3.71a1.64,1.64,0,0,1,1.62,1.52V41.07l10-17.17a3,3,0,0,1,2.49-1.29h21.59c.86,0,1.19.54.75,1.29L175,50.35l19.54,30.34c.54.75.1,1.29-.76,1.29h-23a2.94,2.94,0,0,1-2.27-1.29L156.1,59.31v21A1.65,1.65,0,0,1,154.48,82h-19a1.65,1.65,0,0,1-1.61-1.62V5.23a1.64,1.64,0,0,1,1.61-1.52Z"/><path class="cls-1" d="M248.62,75.94c.22.75,0,1.18-.75,1.62-5.73,3.77-14,6-22.35,6-19.11,0-31.85-12.52-31.85-31.2S206.19,21.1,225,21.1c17.92,0,28.5,11.55,28.5,31.19a25,25,0,0,1-.43,4.86,1.41,1.41,0,0,1-1.62,1.3H216.77s0,6.8,9.07,6.8a41,41,0,0,0,16.52-3.56,1.15,1.15,0,0,1,1.62.86ZM212.56,14.08A1.71,1.71,0,0,1,213,11.7L232.43.26a1.44,1.44,0,0,1,2.16.76L238.8,8.9a1.45,1.45,0,0,1-.87,2.16l-21.05,8.63a1.73,1.73,0,0,1-2.26-1.19Zm19.44,33c0-4.75-2.92-7.88-7.24-7.88-4.85,0-8.09,3.13-8.09,7.88Z"/><path class="cls-1" d="M283.92,25.2c3.24-2.59,8.1-4.1,13.17-4.1,17.06,0,28.5,12.52,28.5,31.19S314.15,83.6,297.09,83.6c-7.23,0-14.14-2.81-18.24-7.12l-1.62,3.88c-.43,1-1,1.62-1.73,1.62H263.3a1.66,1.66,0,0,1-1.62-1.62V5.23a1.65,1.65,0,0,1,1.62-1.52h19a1.64,1.64,0,0,1,1.62,1.52Zm0,34a9.1,9.1,0,0,0,8.53,5.94c5.94,0,9.93-5.18,9.93-13,0-7.56-4-12.53-9.93-12.53a9.11,9.11,0,0,0-8.53,5.94Z"/><path class="cls-1" d="M337.58,29.3a1.68,1.68,0,0,1,.54-2.05c6.15-3.89,14.79-6.15,23.42-6.15,18.68,0,27.32,9.82,27.32,31.3v28A1.66,1.66,0,0,1,387.24,82H373.63a1.75,1.75,0,0,1-1.72-1.62l-.76-2.91c-3.56,3.78-10.69,6.15-18.57,6.15-12.41,0-20.62-8-20.51-19.86.11-10.58,8.31-17.6,20.51-17.6,6.26,0,11.88,2.27,14,5.72V47.33c0-4.64-3.35-7.67-8.32-7.67a28.28,28.28,0,0,0-12.95,3.46c-.54.32-1.19-.11-1.62-.87Zm29,33.25a8,8,0,0,0-5.94-2.7c-2.7,0-4.53,1.51-4.53,3.89s1.83,3.88,4.53,3.88a8,8,0,0,0,5.94-2.69Z"/><path class="cls-1" d="M436.25,74.21c-1.73,3.45-6.91,5.72-13,5.72-15.76,0-26.23-11.33-26.23-28.39,0-19.11,9.72-30.44,26.23-30.44,8.32,0,14.9,2.26,17.71,6.15l1.94-3a3.28,3.28,0,0,1,2.48-1.62h11.45a1.53,1.53,0,0,1,1.62,1.62V76.48c0,16.3-14.79,27.2-33.15,27.2-10.68,0-20.18-2.48-25.47-6.8a1.69,1.69,0,0,1-.65-1.84l5.51-13.38c.32-.76,1-1.08,1.61-.65,4.65,3.78,11.77,6,19,6,6.81,0,10.91-3.57,10.91-9.72Zm0-28.07a7.69,7.69,0,0,0-7.45-4.86c-5.4,0-8.53,3.78-8.53,10.26S423.4,61.9,428.8,61.9A7.69,7.69,0,0,0,436.25,57Z"/></symbol><symbol id="pokebag_logotype_white_" data-name="pokebag logotype (white)" viewBox="0 0 458 104"><use width="458.49" height="103.68" xlink:href="#pokebag_logotype"/></symbol></defs><use width="458" height="104" transform="translate(0.24 -0.16)" xlink:href="#pokebag_logotype_white_"/></svg>