<svg id="Layer_1" data-name="Layer 1" xmlns="http://www.w3.org/2000/svg" viewBox="0 0 458.49 103.68"><defs><style>.cls-1{fill:#fff;}</style></defs><path class="cls-1" d="M26.5,7.49c18.89,0,30.23,10.26,30.23,25.7S45.39,58.88,26.5,58.88H22.08V80.47A1.67,1.67,0,0,1,20.35,82H1A1.62,1.62,0,0,1-.49,80.47V9.11A1.65,1.65,0,0,1,1,7.49Zm1,32.07a6.07,6.07,0,0,0,6.37-6.37,6.06,6.06,0,0,0-6.37-6.37H21.86V39.56Z"/><path class="cls-1" d="M125.17,52.29c0,18.79-12.74,31.31-31.74,31.31S61.7,71.08,61.7,52.4,74.43,21.1,93.43,21.1,125.17,33.62,125.17,52.29Zm-42.42.11c0,7,4.31,11.77,10.68,11.77s10.69-4.75,10.69-11.88S99.8,40.53,93.43,40.53,82.75,45.28,82.75,52.4Z"/><path class="cls-1" d="M154,3.71a1.65,1.65,0,0,1,1.62,1.52V41.07l10-17.17a3,3,0,0,1,2.48-1.29h21.59c.86,0,1.19.54.76,1.29l-16,26.45,19.54,30.34c.54.75.11,1.29-.76,1.29h-23A2.94,2.94,0,0,1,168,80.69L155.62,59.31v21A1.66,1.66,0,0,1,154,82H135a1.65,1.65,0,0,1-1.62-1.62V5.23A1.64,1.64,0,0,1,135,3.71Z"/><path class="cls-1" d="M248.13,75.94c.22.75,0,1.18-.75,1.62-5.72,3.77-14,6-22.35,6-19.11,0-31.85-12.52-31.85-31.2s12.53-31.3,31.31-31.3c17.92,0,28.5,11.55,28.5,31.19a25,25,0,0,1-.43,4.86,1.41,1.41,0,0,1-1.62,1.3H216.29s0,6.8,9.07,6.8a41,41,0,0,0,16.51-3.56,1.15,1.15,0,0,1,1.62.86Zm-36-61.86a1.71,1.71,0,0,1,.43-2.38L231.94.26A1.44,1.44,0,0,1,234.1,1l4.21,7.88a1.45,1.45,0,0,1-.86,2.16l-21,8.63a1.73,1.73,0,0,1-2.27-1.19Zm19.43,33c0-4.75-2.92-7.88-7.23-7.88-4.86,0-8.1,3.13-8.1,7.88Z"/><path class="cls-1" d="M283.44,25.2c3.23-2.59,8.09-4.1,13.17-4.1,17.05,0,28.5,12.52,28.5,31.19S313.66,83.6,296.61,83.6c-7.24,0-14.15-2.81-18.25-7.12l-1.62,3.88c-.43,1-1,1.62-1.72,1.62h-12.2a1.65,1.65,0,0,1-1.62-1.62V5.23a1.64,1.64,0,0,1,1.62-1.52h19a1.65,1.65,0,0,1,1.62,1.52Zm0,34A9.09,9.09,0,0,0,292,65.14c5.94,0,9.94-5.18,9.94-13,0-7.56-4-12.53-9.94-12.53a9.1,9.1,0,0,0-8.52,5.94Z"/><path class="cls-1" d="M337.09,29.3a1.69,1.69,0,0,1,.54-2.05c6.15-3.89,14.79-6.15,23.43-6.15,18.67,0,27.31,9.82,27.31,31.3v28A1.66,1.66,0,0,1,386.75,82h-13.6a1.75,1.75,0,0,1-1.73-1.62l-.76-2.91C367.1,81.23,360,83.6,352.1,83.6c-12.42,0-20.62-8-20.52-19.86.11-10.58,8.32-17.6,20.52-17.6,6.26,0,11.87,2.27,14,5.72V47.33c0-4.64-3.35-7.67-8.31-7.67a28.32,28.32,0,0,0-13,3.46c-.54.32-1.19-.11-1.62-.87Zm29,33.25a8,8,0,0,0-5.94-2.7c-2.7,0-4.53,1.51-4.53,3.89s1.83,3.88,4.53,3.88a8,8,0,0,0,5.94-2.69Z"/><path class="cls-1" d="M435.76,74.21c-1.73,3.45-6.91,5.72-12.95,5.72-15.77,0-26.24-11.33-26.24-28.39,0-19.11,9.72-30.44,26.24-30.44,8.31,0,14.89,2.26,17.7,6.15l1.94-3a3.28,3.28,0,0,1,2.49-1.62h11.44A1.53,1.53,0,0,1,458,24.23V76.48c0,16.3-14.79,27.2-33.14,27.2-10.69,0-20.19-2.48-25.48-6.8a1.7,1.7,0,0,1-.65-1.84l5.51-13.38c.32-.76,1-1.08,1.62-.65,4.64,3.78,11.76,6,19,6,6.8,0,10.9-3.57,10.9-9.72Zm0-28.07a7.69,7.69,0,0,0-7.45-4.86c-5.4,0-8.53,3.78-8.53,10.26s3.13,10.36,8.53,10.36A7.69,7.69,0,0,0,435.76,57Z"/></svg>