<svg id="Layer_1" data-name="Layer 1" xmlns="http://www.w3.org/2000/svg" xmlns:xlink="http://www.w3.org/1999/xlink" viewBox="0 0 1036.33 205.61"><defs><style>.cls-1{fill:none;}.cls-2{fill:#fff;}.cls-3{fill:#07224f;}.cls-4{fill:#b8e5fc;}.cls-5{opacity:0.2;}.cls-6{clip-path:url(#clip-path);}.cls-7{fill:#f01616;}.cls-8{clip-path:url(#clip-path-2);}.cls-9{fill:#4a4a4a;}</style><clipPath id="clip-path"><path class="cls-1" d="M52.24,173.21h68.27c10.7,0,18.25-2.71,23.06-8.29,6.7-7.78,8.62-21.71,5.7-41.42l-.15-.9H117.57a32.12,32.12,0,0,1-62.42,0H23.63l-.15.9c-2.93,19.8-1.06,33.74,5.58,41.44C33.86,170.5,41.44,173.21,52.24,173.21Z"/></clipPath><clipPath id="clip-path-2"><path class="cls-1" d="M146.67,106.35c-2.73-16.94-6.2-35.23-14.16-49.29C122.83,39.94,108.16,32,86.37,32s-36.46,8-46.15,25.09c-8,14.06-11.43,32.35-14.16,49.29H55.14a32.12,32.12,0,0,1,62.42,0Z"/></clipPath><symbol id="pokebag_logoform" data-name="pokebag logoform" viewBox="0 0 175.25 195.06"><circle class="cls-2" cx="79.43" cy="121.6" r="18.83"/><path class="cls-3" d="M157.35,127.84l0-.16c-.57-3.29-1.1-6.67-1.66-10.25C152.56,97.7,149,75.34,138.81,57.28c-5.79-10.22-13.3-18.15-22.34-23.56-1.59-1-3.25-1.83-5-2.64a32.12,32.12,0,0,0-64.2,0c-1.69.81-3.33,1.68-4.92,2.63-9,5.41-16.55,13.34-22.33,23.56C9.84,75.34,6.32,97.7,3.21,117.43c-.57,3.58-1.1,7-1.66,10.25l0,.16c-3.68,24.76-.7,42.31,9.09,53.67,7.75,9,19.42,13.55,34.7,13.55h68.26c15.18,0,26.81-4.57,34.57-13.57C158,170.05,161,152.5,157.35,127.84ZM79.42,15.2A17,17,0,0,1,95.15,25.86a90.66,90.66,0,0,0-31.46,0A17,17,0,0,1,79.42,15.2ZM33.29,64.77C43,47.65,57.64,39.68,79.44,39.68s36.46,8,46.15,25.09c7.95,14,11.42,32.34,14.15,49.29H110.63a32.12,32.12,0,0,0-62.42,0H19.13C21.86,97.11,25.33,78.82,33.29,64.77Zm63.06,56.88a16.93,16.93,0,1,1-16.93-16.93A17,17,0,0,1,96.35,121.65Zm40.28,49.92c-4.81,5.58-12.36,8.29-23.06,8.29H45.31c-10.81,0-18.39-2.7-23.19-8.27-6.63-7.69-8.51-21.63-5.58-41.44l.15-.9H48.21a32.12,32.12,0,0,0,62.42,0h31.55l.15.9C145.25,149.86,143.33,163.8,136.63,171.57Z"/><path class="cls-4" d="M45.31,179.86h68.26c10.7,0,18.25-2.71,23.06-8.29,6.7-7.77,8.62-21.71,5.7-41.42l-.15-.9H110.63a32.12,32.12,0,0,1-62.42,0H16.69l-.15.9c-2.93,19.81-1,33.75,5.58,41.44C26.92,177.16,34.5,179.86,45.31,179.86Z"/><g class="cls-5"><g class="cls-6"><circle class="cls-3" cx="4.61" cy="100.12" r="1.85"/><circle class="cls-3" cx="14.93" cy="100.12" r="1.85"/><circle class="cls-3" cx="25.26" cy="100.12" r="1.85"/><circle class="cls-3" cx="35.59" cy="100.12" r="1.85"/><circle class="cls-3" cx="45.92" cy="100.12" r="1.85"/><circle class="cls-3" cx="56.25" cy="100.12" r="1.85"/><circle class="cls-3" cx="66.57" cy="100.12" r="1.85"/><circle class="cls-3" cx="76.9" cy="100.12" r="1.85"/><circle class="cls-3" cx="87.23" cy="100.12" r="1.85"/><circle class="cls-3" cx="97.56" cy="100.12" r="1.85"/><circle class="cls-3" cx="107.89" cy="100.12" r="1.85"/><circle class="cls-3" cx="118.21" cy="100.12" r="1.85"/><circle class="cls-3" cx="128.54" cy="100.12" r="1.85"/><circle class="cls-3" cx="138.87" cy="100.12" r="1.85"/><circle class="cls-3" cx="149.2" cy="100.12" r="1.85"/><circle class="cls-3" cx="159.53" cy="100.12" r="1.85"/><circle class="cls-3" cx="9.77" cy="105.28" r="1.85"/><circle class="cls-3" cx="20.1" cy="105.28" r="1.85"/><circle class="cls-3" cx="30.43" cy="105.28" r="1.85"/><circle class="cls-3" cx="40.75" cy="105.28" r="1.85"/><circle class="cls-3" cx="51.08" cy="105.28" r="1.85"/><circle class="cls-3" cx="61.41" cy="105.28" r="1.85"/><circle class="cls-3" cx="71.74" cy="105.28" r="1.85"/><circle class="cls-3" cx="82.07" cy="105.28" r="1.85"/><circle class="cls-3" cx="92.39" cy="105.28" r="1.85"/><circle class="cls-3" cx="102.72" cy="105.28" r="1.85"/><circle class="cls-3" cx="113.05" cy="105.28" r="1.85"/><circle class="cls-3" cx="123.38" cy="105.28" r="1.85"/><circle class="cls-3" cx="133.71" cy="105.28" r="1.85"/><circle class="cls-3" cx="144.03" cy="105.28" r="1.85"/><circle class="cls-3" cx="154.36" cy="105.28" r="1.85"/><circle class="cls-3" cx="164.69" cy="105.28" r="1.85"/><circle class="cls-3" cx="4.61" cy="110.45" r="1.85"/><circle class="cls-3" cx="14.93" cy="110.45" r="1.85"/><circle class="cls-3" cx="25.26" cy="110.45" r="1.85"/><circle class="cls-3" cx="35.59" cy="110.45" r="1.85"/><circle class="cls-3" cx="45.92" cy="110.45" r="1.85"/><circle class="cls-3" cx="56.25" cy="110.45" r="1.85"/><circle class="cls-3" cx="66.57" cy="110.45" r="1.85"/><circle class="cls-3" cx="76.9" cy="110.45" r="1.85"/><circle class="cls-3" cx="87.23" cy="110.45" r="1.85"/><circle class="cls-3" cx="97.56" cy="110.45" r="1.85"/><circle class="cls-3" cx="107.89" cy="110.45" r="1.85"/><circle class="cls-3" cx="118.21" cy="110.45" r="1.85"/><circle class="cls-3" cx="128.54" cy="110.45" r="1.85"/><circle class="cls-3" cx="138.87" cy="110.45" r="1.85"/><circle class="cls-3" cx="149.2" cy="110.45" r="1.85"/><circle class="cls-3" cx="159.53" cy="110.45" r="1.85"/><circle class="cls-3" cx="9.77" cy="115.61" r="1.85"/><circle class="cls-3" cx="20.1" cy="115.61" r="1.85"/><circle class="cls-3" cx="30.43" cy="115.61" r="1.85"/><circle class="cls-3" cx="40.75" cy="115.61" r="1.85"/><circle class="cls-3" cx="51.08" cy="115.61" r="1.85"/><circle class="cls-3" cx="61.41" cy="115.61" r="1.85"/><circle class="cls-3" cx="71.74" cy="115.61" r="1.85"/><circle class="cls-3" cx="82.07" cy="115.61" r="1.85"/><circle class="cls-3" cx="92.39" cy="115.61" r="1.85"/><circle class="cls-3" cx="102.72" cy="115.61" r="1.85"/><circle class="cls-3" cx="113.05" cy="115.61" r="1.85"/><circle class="cls-3" cx="123.38" cy="115.61" r="1.85"/><circle class="cls-3" cx="133.71" cy="115.61" r="1.85"/><circle class="cls-3" cx="144.03" cy="115.61" r="1.85"/><circle class="cls-3" cx="154.36" cy="115.61" r="1.85"/><circle class="cls-3" cx="164.69" cy="115.61" r="1.85"/><circle class="cls-3" cx="4.61" cy="120.78" r="1.85"/><circle class="cls-3" cx="14.93" cy="120.78" r="1.85"/><circle class="cls-3" cx="25.26" cy="120.78" r="1.85"/><circle class="cls-3" cx="35.59" cy="120.78" r="1.85"/><circle class="cls-3" cx="45.92" cy="120.78" r="1.85"/><circle class="cls-3" cx="56.25" cy="120.78" r="1.85"/><circle class="cls-3" cx="66.57" cy="120.78" r="1.85"/><circle class="cls-3" cx="76.9" cy="120.78" r="1.85"/><circle class="cls-3" cx="87.23" cy="120.78" r="1.85"/><circle class="cls-3" cx="97.56" cy="120.78" r="1.85"/><circle class="cls-3" cx="107.89" cy="120.78" r="1.85"/><circle class="cls-3" cx="118.21" cy="120.78" r="1.85"/><circle class="cls-3" cx="128.54" cy="120.78" r="1.85"/><circle class="cls-3" cx="138.87" cy="120.78" r="1.85"/><circle class="cls-3" cx="149.2" cy="120.78" r="1.85"/><circle class="cls-3" cx="159.53" cy="120.78" r="1.85"/><circle class="cls-3" cx="9.77" cy="125.94" r="1.85"/><circle class="cls-3" cx="20.1" cy="125.94" r="1.85"/><circle class="cls-3" cx="30.43" cy="125.94" r="1.85"/><circle class="cls-3" cx="40.75" cy="125.94" r="1.85"/><circle class="cls-3" cx="51.08" cy="125.94" r="1.85"/><circle class="cls-3" cx="61.41" cy="125.94" r="1.85"/><circle class="cls-3" cx="71.74" cy="125.94" r="1.85"/><circle class="cls-3" cx="82.07" cy="125.94" r="1.85"/><circle class="cls-3" cx="92.39" cy="125.94" r="1.85"/><circle class="cls-3" cx="102.72" cy="125.94" r="1.85"/><circle class="cls-3" cx="113.05" cy="125.94" r="1.85"/><circle class="cls-3" cx="123.38" cy="125.94" r="1.85"/><circle class="cls-3" cx="133.71" cy="125.94" r="1.85"/><circle class="cls-3" cx="144.03" cy="125.94" r="1.85"/><circle class="cls-3" cx="154.36" cy="125.94" r="1.85"/><circle class="cls-3" cx="164.69" cy="125.94" r="1.85"/><circle class="cls-3" cx="4.61" cy="131.1" r="1.85"/><circle class="cls-3" cx="14.93" cy="131.1" r="1.85"/><circle class="cls-3" cx="25.26" cy="131.1" r="1.85"/><circle class="cls-3" cx="35.59" cy="131.1" r="1.85"/><circle class="cls-3" cx="45.92" cy="131.1" r="1.85"/><circle class="cls-3" cx="56.25" cy="131.1" r="1.85"/><circle class="cls-3" cx="66.57" cy="131.1" r="1.85"/><circle class="cls-3" cx="76.9" cy="131.1" r="1.85"/><circle class="cls-3" cx="87.23" cy="131.1" r="1.85"/><circle class="cls-3" cx="97.56" cy="131.1" r="1.85"/><circle class="cls-3" cx="107.89" cy="131.1" r="1.85"/><circle class="cls-3" cx="118.21" cy="131.1" r="1.85"/><circle class="cls-3" cx="128.54" cy="131.1" r="1.85"/><circle class="cls-3" cx="138.87" cy="131.1" r="1.85"/><circle class="cls-3" cx="149.2" cy="131.1" r="1.85"/><circle class="cls-3" cx="159.53" cy="131.1" r="1.85"/><circle class="cls-3" cx="9.77" cy="136.27" r="1.85"/><circle class="cls-3" cx="20.1" cy="136.27" r="1.85"/><circle class="cls-3" cx="30.43" cy="136.27" r="1.85"/><circle class="cls-3" cx="40.75" cy="136.27" r="1.85"/><circle class="cls-3" cx="51.08" cy="136.27" r="1.85"/><circle class="cls-3" cx="61.41" cy="136.27" r="1.85"/><circle class="cls-3" cx="71.74" cy="136.27" r="1.85"/><circle class="cls-3" cx="82.07" cy="136.27" r="1.85"/><circle class="cls-3" cx="92.39" cy="136.27" r="1.85"/><circle class="cls-3" cx="102.72" cy="136.27" r="1.85"/><circle class="cls-3" cx="113.05" cy="136.27" r="1.85"/><circle class="cls-3" cx="123.38" cy="136.27" r="1.85"/><circle class="cls-3" cx="133.71" cy="136.27" r="1.85"/><circle class="cls-3" cx="144.03" cy="136.27" r="1.85"/><circle class="cls-3" cx="154.36" cy="136.27" r="1.85"/><circle class="cls-3" cx="164.69" cy="136.27" r="1.85"/><circle class="cls-3" cx="4.61" cy="141.43" r="1.85"/><circle class="cls-3" cx="14.93" cy="141.43" r="1.85"/><circle class="cls-3" cx="25.26" cy="141.43" r="1.85"/><circle class="cls-3" cx="35.59" cy="141.43" r="1.85"/><circle class="cls-3" cx="45.92" cy="141.43" r="1.85"/><circle class="cls-3" cx="56.25" cy="141.43" r="1.85"/><circle class="cls-3" cx="66.57" cy="141.43" r="1.85"/><circle class="cls-3" cx="76.9" cy="141.43" r="1.85"/><circle class="cls-3" cx="87.23" cy="141.43" r="1.85"/><circle class="cls-3" cx="97.56" cy="141.43" r="1.85"/><circle class="cls-3" cx="107.89" cy="141.43" r="1.85"/><circle class="cls-3" cx="118.21" cy="141.43" r="1.85"/><circle class="cls-3" cx="128.54" cy="141.43" r="1.85"/><circle class="cls-3" cx="138.87" cy="141.43" r="1.85"/><circle class="cls-3" cx="149.2" cy="141.43" r="1.85"/><circle class="cls-3" cx="159.53" cy="141.43" r="1.85"/><circle class="cls-3" cx="9.77" cy="146.6" r="1.85"/><circle class="cls-3" cx="20.1" cy="146.6" r="1.85"/><circle class="cls-3" cx="30.43" cy="146.6" r="1.85"/><circle class="cls-3" cx="40.75" cy="146.6" r="1.85"/><circle class="cls-3" cx="51.08" cy="146.6" r="1.85"/><circle class="cls-3" cx="61.41" cy="146.6" r="1.85"/><circle class="cls-3" cx="71.74" cy="146.6" r="1.85"/><circle class="cls-3" cx="82.07" cy="146.6" r="1.85"/><circle class="cls-3" cx="92.39" cy="146.6" r="1.85"/><circle class="cls-3" cx="102.72" cy="146.6" r="1.85"/><circle class="cls-3" cx="113.05" cy="146.6" r="1.85"/><circle class="cls-3" cx="123.38" cy="146.6" r="1.85"/><circle class="cls-3" cx="133.71" cy="146.6" r="1.85"/><circle class="cls-3" cx="144.03" cy="146.6" r="1.85"/><circle class="cls-3" cx="154.36" cy="146.6" r="1.85"/><circle class="cls-3" cx="164.69" cy="146.6" r="1.85"/><circle class="cls-3" cx="4.61" cy="151.76" r="1.85"/><circle class="cls-3" cx="14.93" cy="151.76" r="1.85"/><circle class="cls-3" cx="25.26" cy="151.76" r="1.85"/><circle class="cls-3" cx="35.59" cy="151.76" r="1.85"/><circle class="cls-3" cx="45.92" cy="151.76" r="1.85"/><circle class="cls-3" cx="56.25" cy="151.76" r="1.85"/><circle class="cls-3" cx="66.57" cy="151.76" r="1.85"/><circle class="cls-3" cx="76.9" cy="151.76" r="1.85"/><circle class="cls-3" cx="87.23" cy="151.76" r="1.85"/><circle class="cls-3" cx="97.56" cy="151.76" r="1.85"/><circle class="cls-3" cx="107.89" cy="151.76" r="1.85"/><circle class="cls-3" cx="118.21" cy="151.76" r="1.85"/><circle class="cls-3" cx="128.54" cy="151.76" r="1.85"/><circle class="cls-3" cx="138.87" cy="151.76" r="1.85"/><circle class="cls-3" cx="149.2" cy="151.76" r="1.85"/><circle class="cls-3" cx="159.53" cy="151.76" r="1.85"/><circle class="cls-3" cx="9.77" cy="156.92" r="1.85"/><circle class="cls-3" cx="20.1" cy="156.92" r="1.85"/><circle class="cls-3" cx="30.43" cy="156.92" r="1.85"/><circle class="cls-3" cx="40.75" cy="156.92" r="1.85"/><circle class="cls-3" cx="51.08" cy="156.92" r="1.85"/><circle class="cls-3" cx="61.41" cy="156.92" r="1.85"/><circle class="cls-3" cx="71.74" cy="156.92" r="1.85"/><circle class="cls-3" cx="82.07" cy="156.92" r="1.85"/><circle class="cls-3" cx="92.39" cy="156.92" r="1.85"/><circle class="cls-3" cx="102.72" cy="156.92" r="1.85"/><circle class="cls-3" cx="113.05" cy="156.92" r="1.85"/><circle class="cls-3" cx="123.38" cy="156.92" r="1.85"/><circle class="cls-3" cx="133.71" cy="156.92" r="1.85"/><circle class="cls-3" cx="144.03" cy="156.92" r="1.85"/><circle class="cls-3" cx="154.36" cy="156.92" r="1.85"/><circle class="cls-3" cx="164.69" cy="156.92" r="1.85"/><circle class="cls-3" cx="4.61" cy="162.09" r="1.85"/><circle class="cls-3" cx="14.93" cy="162.09" r="1.85"/><circle class="cls-3" cx="25.26" cy="162.09" r="1.85"/><circle class="cls-3" cx="35.59" cy="162.09" r="1.85"/><circle class="cls-3" cx="45.92" cy="162.09" r="1.85"/><circle class="cls-3" cx="56.25" cy="162.09" r="1.85"/><circle class="cls-3" cx="66.57" cy="162.09" r="1.85"/><circle class="cls-3" cx="76.9" cy="162.09" r="1.85"/><circle class="cls-3" cx="87.23" cy="162.09" r="1.85"/><circle class="cls-3" cx="97.56" cy="162.09" r="1.85"/><circle class="cls-3" cx="107.89" cy="162.09" r="1.85"/><circle class="cls-3" cx="118.21" cy="162.09" r="1.85"/><circle class="cls-3" cx="128.54" cy="162.09" r="1.85"/><circle class="cls-3" cx="138.87" cy="162.09" r="1.85"/><circle class="cls-3" cx="149.2" cy="162.09" r="1.85"/><circle class="cls-3" cx="159.53" cy="162.09" r="1.85"/><circle class="cls-3" cx="9.77" cy="167.25" r="1.85"/><circle class="cls-3" cx="20.1" cy="167.25" r="1.85"/><circle class="cls-3" cx="30.43" cy="167.25" r="1.85"/><circle class="cls-3" cx="40.75" cy="167.25" r="1.85"/><circle class="cls-3" cx="51.08" cy="167.25" r="1.85"/><circle class="cls-3" cx="61.41" cy="167.25" r="1.85"/><circle class="cls-3" cx="71.74" cy="167.25" r="1.85"/><circle class="cls-3" cx="82.07" cy="167.25" r="1.85"/><circle class="cls-3" cx="92.39" cy="167.25" r="1.85"/><circle class="cls-3" cx="102.72" cy="167.25" r="1.85"/><circle class="cls-3" cx="113.05" cy="167.25" r="1.85"/><circle class="cls-3" cx="123.38" cy="167.25" r="1.85"/><circle class="cls-3" cx="133.71" cy="167.25" r="1.85"/><circle class="cls-3" cx="144.03" cy="167.25" r="1.85"/><circle class="cls-3" cx="154.36" cy="167.25" r="1.85"/><circle class="cls-3" cx="164.69" cy="167.25" r="1.85"/><circle class="cls-3" cx="4.61" cy="172.42" r="1.85"/><circle class="cls-3" cx="14.93" cy="172.42" r="1.85"/><circle class="cls-3" cx="25.26" cy="172.42" r="1.85"/><circle class="cls-3" cx="35.59" cy="172.42" r="1.85"/><circle class="cls-3" cx="45.92" cy="172.42" r="1.85"/><circle class="cls-3" cx="56.25" cy="172.42" r="1.85"/><circle class="cls-3" cx="66.57" cy="172.42" r="1.85"/><circle class="cls-3" cx="76.9" cy="172.42" r="1.85"/><circle class="cls-3" cx="87.23" cy="172.42" r="1.85"/><circle class="cls-3" cx="97.56" cy="172.42" r="1.85"/><circle class="cls-3" cx="107.89" cy="172.42" r="1.85"/><circle class="cls-3" cx="118.21" cy="172.42" r="1.85"/><circle class="cls-3" cx="128.54" cy="172.42" r="1.85"/><circle class="cls-3" cx="138.87" cy="172.42" r="1.85"/><circle class="cls-3" cx="149.2" cy="172.42" r="1.85"/><circle class="cls-3" cx="159.53" cy="172.42" r="1.85"/><circle class="cls-3" cx="9.77" cy="177.58" r="1.85"/><circle class="cls-3" cx="20.1" cy="177.58" r="1.85"/><circle class="cls-3" cx="30.43" cy="177.58" r="1.85"/><circle class="cls-3" cx="40.75" cy="177.58" r="1.85"/><circle class="cls-3" cx="51.08" cy="177.58" r="1.85"/><circle class="cls-3" cx="61.41" cy="177.58" r="1.85"/><circle class="cls-3" cx="71.74" cy="177.58" r="1.85"/><circle class="cls-3" cx="82.07" cy="177.58" r="1.85"/><circle class="cls-3" cx="92.39" cy="177.58" r="1.85"/><circle class="cls-3" cx="102.72" cy="177.58" r="1.85"/><circle class="cls-3" cx="113.05" cy="177.58" r="1.85"/><circle class="cls-3" cx="123.38" cy="177.58" r="1.85"/><circle class="cls-3" cx="133.71" cy="177.58" r="1.85"/><circle class="cls-3" cx="144.03" cy="177.58" r="1.85"/><circle class="cls-3" cx="154.36" cy="177.58" r="1.85"/><circle class="cls-3" cx="164.69" cy="177.58" r="1.85"/><circle class="cls-3" cx="4.61" cy="182.74" r="1.85"/><circle class="cls-3" cx="14.93" cy="182.74" r="1.85"/><circle class="cls-3" cx="25.26" cy="182.74" r="1.85"/><circle class="cls-3" cx="35.59" cy="182.74" r="1.85"/><circle class="cls-3" cx="45.92" cy="182.74" r="1.85"/><circle class="cls-3" cx="56.25" cy="182.74" r="1.85"/><circle class="cls-3" cx="66.57" cy="182.74" r="1.85"/><circle class="cls-3" cx="76.9" cy="182.74" r="1.85"/><circle class="cls-3" cx="87.23" cy="182.74" r="1.85"/><circle class="cls-3" cx="97.56" cy="182.74" r="1.85"/><circle class="cls-3" cx="107.89" cy="182.74" r="1.85"/><circle class="cls-3" cx="118.21" cy="182.74" r="1.85"/><circle class="cls-3" cx="128.54" cy="182.74" r="1.85"/><circle class="cls-3" cx="138.87" cy="182.74" r="1.85"/><circle class="cls-3" cx="149.2" cy="182.74" r="1.85"/><circle class="cls-3" cx="159.53" cy="182.74" r="1.85"/></g></g><path class="cls-7" d="M139.74,114.06c-2.73-17-6.2-35.24-14.15-49.29-9.69-17.12-24.36-25.09-46.15-25.09S43,47.65,33.29,64.77c-8,14-11.43,32.34-14.16,49.29H48.21a32.12,32.12,0,0,1,62.42,0Z"/><g class="cls-5"><g class="cls-8"><circle class="cls-3" cx="13.32" cy="28.75" r="1.85"/><circle class="cls-3" cx="23.65" cy="28.75" r="1.85"/><circle class="cls-3" cx="33.98" cy="28.75" r="1.85"/><circle class="cls-3" cx="44.3" cy="28.75" r="1.85"/><circle class="cls-3" cx="54.63" cy="28.75" r="1.85"/><circle class="cls-3" cx="64.96" cy="28.75" r="1.85"/><circle class="cls-3" cx="75.29" cy="28.75" r="1.85"/><circle class="cls-3" cx="85.62" cy="28.75" r="1.85"/><circle class="cls-3" cx="95.94" cy="28.75" r="1.85"/><circle class="cls-3" cx="106.27" cy="28.75" r="1.85"/><circle class="cls-3" cx="116.6" cy="28.75" r="1.85"/><circle class="cls-3" cx="126.93" cy="28.75" r="1.85"/><circle class="cls-3" cx="137.26" cy="28.75" r="1.85"/><circle class="cls-3" cx="147.58" cy="28.75" r="1.85"/><circle class="cls-3" cx="157.91" cy="28.75" r="1.85"/><circle class="cls-3" cx="168.24" cy="28.75" r="1.85"/><circle class="cls-3" cx="18.48" cy="33.92" r="1.85"/><circle class="cls-3" cx="28.81" cy="33.92" r="1.85"/><circle class="cls-3" cx="39.14" cy="33.92" r="1.85"/><circle class="cls-3" cx="49.47" cy="33.92" r="1.85"/><circle class="cls-3" cx="59.8" cy="33.92" r="1.85"/><circle class="cls-3" cx="70.12" cy="33.92" r="1.85"/><circle class="cls-3" cx="80.45" cy="33.92" r="1.85"/><circle class="cls-3" cx="90.78" cy="33.92" r="1.85"/><circle class="cls-3" cx="101.11" cy="33.92" r="1.85"/><circle class="cls-3" cx="111.44" cy="33.92" r="1.85"/><circle class="cls-3" cx="121.76" cy="33.92" r="1.85"/><circle class="cls-3" cx="132.09" cy="33.92" r="1.85"/><circle class="cls-3" cx="142.42" cy="33.92" r="1.85"/><circle class="cls-3" cx="152.75" cy="33.92" r="1.85"/><circle class="cls-3" cx="163.08" cy="33.92" r="1.85"/><circle class="cls-3" cx="173.4" cy="33.92" r="1.85"/><circle class="cls-3" cx="13.32" cy="39.08" r="1.85"/><circle class="cls-3" cx="23.65" cy="39.08" r="1.85"/><circle class="cls-3" cx="33.98" cy="39.08" r="1.85"/><circle class="cls-3" cx="44.3" cy="39.08" r="1.85"/><circle class="cls-3" cx="54.63" cy="39.08" r="1.85"/><circle class="cls-3" cx="64.96" cy="39.08" r="1.85"/><circle class="cls-3" cx="75.29" cy="39.08" r="1.85"/><circle class="cls-3" cx="85.62" cy="39.08" r="1.85"/><circle class="cls-3" cx="95.94" cy="39.08" r="1.85"/><circle class="cls-3" cx="106.27" cy="39.08" r="1.85"/><circle class="cls-3" cx="116.6" cy="39.08" r="1.85"/><circle class="cls-3" cx="126.93" cy="39.08" r="1.85"/><circle class="cls-3" cx="137.26" cy="39.08" r="1.85"/><circle class="cls-3" cx="147.58" cy="39.08" r="1.85"/><circle class="cls-3" cx="157.91" cy="39.08" r="1.85"/><circle class="cls-3" cx="168.24" cy="39.08" r="1.85"/><circle class="cls-3" cx="18.48" cy="44.25" r="1.85"/><circle class="cls-3" cx="28.81" cy="44.25" r="1.85"/><circle class="cls-3" cx="39.14" cy="44.25" r="1.85"/><circle class="cls-3" cx="49.47" cy="44.25" r="1.85"/><circle class="cls-3" cx="59.8" cy="44.25" r="1.85"/><circle class="cls-3" cx="70.12" cy="44.25" r="1.85"/><circle class="cls-3" cx="80.45" cy="44.25" r="1.85"/><circle class="cls-3" cx="90.78" cy="44.25" r="1.85"/><circle class="cls-3" cx="101.11" cy="44.25" r="1.85"/><circle class="cls-3" cx="111.44" cy="44.25" r="1.85"/><circle class="cls-3" cx="121.76" cy="44.25" r="1.85"/><circle class="cls-3" cx="132.09" cy="44.25" r="1.85"/><circle class="cls-3" cx="142.42" cy="44.25" r="1.85"/><circle class="cls-3" cx="152.75" cy="44.25" r="1.85"/><circle class="cls-3" cx="163.08" cy="44.25" r="1.85"/><circle class="cls-3" cx="173.4" cy="44.25" r="1.85"/><circle class="cls-3" cx="13.32" cy="49.41" r="1.85"/><circle class="cls-3" cx="23.65" cy="49.41" r="1.85"/><circle class="cls-3" cx="33.98" cy="49.41" r="1.85"/><circle class="cls-3" cx="44.3" cy="49.41" r="1.85"/><circle class="cls-3" cx="54.63" cy="49.41" r="1.85"/><circle class="cls-3" cx="64.96" cy="49.41" r="1.85"/><circle class="cls-3" cx="75.29" cy="49.41" r="1.85"/><circle class="cls-3" cx="85.62" cy="49.41" r="1.85"/><circle class="cls-3" cx="95.94" cy="49.41" r="1.85"/><circle class="cls-3" cx="106.27" cy="49.41" r="1.85"/><circle class="cls-3" cx="116.6" cy="49.41" r="1.85"/><circle class="cls-3" cx="126.93" cy="49.41" r="1.85"/><circle class="cls-3" cx="137.26" cy="49.41" r="1.85"/><circle class="cls-3" cx="147.58" cy="49.41" r="1.85"/><circle class="cls-3" cx="157.91" cy="49.41" r="1.85"/><circle class="cls-3" cx="168.24" cy="49.41" r="1.85"/><circle class="cls-3" cx="18.48" cy="54.57" r="1.85"/><circle class="cls-3" cx="28.81" cy="54.57" r="1.85"/><circle class="cls-3" cx="39.14" cy="54.57" r="1.85"/><circle class="cls-3" cx="49.47" cy="54.57" r="1.85"/><circle class="cls-3" cx="59.8" cy="54.57" r="1.85"/><circle class="cls-3" cx="70.12" cy="54.57" r="1.85"/><circle class="cls-3" cx="80.45" cy="54.57" r="1.85"/><circle class="cls-3" cx="90.78" cy="54.57" r="1.85"/><circle class="cls-3" cx="101.11" cy="54.57" r="1.85"/><circle class="cls-3" cx="111.44" cy="54.57" r="1.85"/><circle class="cls-3" cx="121.76" cy="54.57" r="1.85"/><circle class="cls-3" cx="132.09" cy="54.57" r="1.85"/><circle class="cls-3" cx="142.42" cy="54.57" r="1.85"/><circle class="cls-3" cx="152.75" cy="54.57" r="1.85"/><circle class="cls-3" cx="163.08" cy="54.57" r="1.85"/><circle class="cls-3" cx="173.4" cy="54.57" r="1.85"/><circle class="cls-3" cx="13.32" cy="59.74" r="1.85"/><circle class="cls-3" cx="23.65" cy="59.74" r="1.85"/><circle class="cls-3" cx="33.98" cy="59.74" r="1.85"/><circle class="cls-3" cx="44.3" cy="59.74" r="1.85"/><circle class="cls-3" cx="54.63" cy="59.74" r="1.85"/><circle class="cls-3" cx="64.96" cy="59.74" r="1.85"/><circle class="cls-3" cx="75.29" cy="59.74" r="1.85"/><circle class="cls-3" cx="85.62" cy="59.74" r="1.85"/><circle class="cls-3" cx="95.94" cy="59.74" r="1.85"/><circle class="cls-3" cx="106.27" cy="59.74" r="1.85"/><circle class="cls-3" cx="116.6" cy="59.74" r="1.85"/><circle class="cls-3" cx="126.93" cy="59.74" r="1.85"/><circle class="cls-3" cx="137.26" cy="59.74" r="1.85"/><circle class="cls-3" cx="147.58" cy="59.74" r="1.85"/><circle class="cls-3" cx="157.91" cy="59.74" r="1.85"/><circle class="cls-3" cx="168.24" cy="59.74" r="1.85"/><circle class="cls-3" cx="18.48" cy="64.9" r="1.85"/><circle class="cls-3" cx="28.81" cy="64.9" r="1.85"/><circle class="cls-3" cx="39.14" cy="64.9" r="1.85"/><circle class="cls-3" cx="49.47" cy="64.9" r="1.85"/><circle class="cls-3" cx="59.8" cy="64.9" r="1.85"/><circle class="cls-3" cx="70.12" cy="64.9" r="1.85"/><circle class="cls-3" cx="80.45" cy="64.9" r="1.85"/><circle class="cls-3" cx="90.78" cy="64.9" r="1.85"/><circle class="cls-3" cx="101.11" cy="64.9" r="1.85"/><circle class="cls-3" cx="111.44" cy="64.9" r="1.85"/><circle class="cls-3" cx="121.76" cy="64.9" r="1.85"/><circle class="cls-3" cx="132.09" cy="64.9" r="1.85"/><circle class="cls-3" cx="142.42" cy="64.9" r="1.85"/><circle class="cls-3" cx="152.75" cy="64.9" r="1.85"/><circle class="cls-3" cx="163.08" cy="64.9" r="1.85"/><circle class="cls-3" cx="173.4" cy="64.9" r="1.85"/><circle class="cls-3" cx="13.32" cy="70.07" r="1.85"/><circle class="cls-3" cx="23.65" cy="70.07" r="1.85"/><circle class="cls-3" cx="33.98" cy="70.07" r="1.85"/><circle class="cls-3" cx="44.3" cy="70.07" r="1.85"/><circle class="cls-3" cx="54.63" cy="70.07" r="1.85"/><circle class="cls-3" cx="64.96" cy="70.07" r="1.85"/><circle class="cls-3" cx="75.29" cy="70.07" r="1.85"/><circle class="cls-3" cx="85.62" cy="70.07" r="1.85"/><circle class="cls-3" cx="95.94" cy="70.07" r="1.85"/><circle class="cls-3" cx="106.27" cy="70.07" r="1.85"/><circle class="cls-3" cx="116.6" cy="70.07" r="1.85"/><circle class="cls-3" cx="126.93" cy="70.07" r="1.85"/><circle class="cls-3" cx="137.26" cy="70.07" r="1.85"/><circle class="cls-3" cx="147.58" cy="70.07" r="1.85"/><circle class="cls-3" cx="157.91" cy="70.07" r="1.85"/><circle class="cls-3" cx="168.24" cy="70.07" r="1.85"/><circle class="cls-3" cx="18.48" cy="75.23" r="1.85"/><circle class="cls-3" cx="28.81" cy="75.23" r="1.85"/><circle class="cls-3" cx="39.14" cy="75.23" r="1.85"/><circle class="cls-3" cx="49.47" cy="75.23" r="1.85"/><circle class="cls-3" cx="59.8" cy="75.23" r="1.85"/><circle class="cls-3" cx="70.12" cy="75.23" r="1.85"/><circle class="cls-3" cx="80.45" cy="75.23" r="1.85"/><circle class="cls-3" cx="90.78" cy="75.23" r="1.85"/><circle class="cls-3" cx="101.11" cy="75.23" r="1.85"/><circle class="cls-3" cx="111.44" cy="75.23" r="1.85"/><circle class="cls-3" cx="121.76" cy="75.23" r="1.85"/><circle class="cls-3" cx="132.09" cy="75.23" r="1.85"/><circle class="cls-3" cx="142.42" cy="75.23" r="1.85"/><circle class="cls-3" cx="152.75" cy="75.23" r="1.85"/><circle class="cls-3" cx="163.08" cy="75.23" r="1.85"/><circle class="cls-3" cx="173.4" cy="75.23" r="1.85"/><circle class="cls-3" cx="13.32" cy="80.39" r="1.85"/><circle class="cls-3" cx="23.65" cy="80.39" r="1.85"/><circle class="cls-3" cx="33.98" cy="80.39" r="1.85"/><circle class="cls-3" cx="44.3" cy="80.39" r="1.85"/><circle class="cls-3" cx="54.63" cy="80.39" r="1.85"/><circle class="cls-3" cx="64.96" cy="80.39" r="1.85"/><circle class="cls-3" cx="75.29" cy="80.39" r="1.85"/><circle class="cls-3" cx="85.62" cy="80.39" r="1.85"/><circle class="cls-3" cx="95.94" cy="80.39" r="1.85"/><circle class="cls-3" cx="106.27" cy="80.39" r="1.85"/><circle class="cls-3" cx="116.6" cy="80.39" r="1.85"/><circle class="cls-3" cx="126.93" cy="80.39" r="1.85"/><circle class="cls-3" cx="137.26" cy="80.39" r="1.85"/><circle class="cls-3" cx="147.58" cy="80.39" r="1.85"/><circle class="cls-3" cx="157.91" cy="80.39" r="1.85"/><circle class="cls-3" cx="168.24" cy="80.39" r="1.85"/><circle class="cls-3" cx="18.48" cy="85.56" r="1.85"/><circle class="cls-3" cx="28.81" cy="85.56" r="1.85"/><circle class="cls-3" cx="39.14" cy="85.56" r="1.85"/><circle class="cls-3" cx="49.47" cy="85.56" r="1.85"/><circle class="cls-3" cx="59.8" cy="85.56" r="1.85"/><circle class="cls-3" cx="70.12" cy="85.56" r="1.85"/><circle class="cls-3" cx="80.45" cy="85.56" r="1.85"/><circle class="cls-3" cx="90.78" cy="85.56" r="1.85"/><circle class="cls-3" cx="101.11" cy="85.56" r="1.85"/><circle class="cls-3" cx="111.44" cy="85.56" r="1.85"/><circle class="cls-3" cx="121.76" cy="85.56" r="1.85"/><circle class="cls-3" cx="132.09" cy="85.56" r="1.85"/><circle class="cls-3" cx="142.42" cy="85.56" r="1.85"/><circle class="cls-3" cx="152.75" cy="85.56" r="1.85"/><circle class="cls-3" cx="163.08" cy="85.56" r="1.85"/><circle class="cls-3" cx="173.4" cy="85.56" r="1.85"/><circle class="cls-3" cx="13.32" cy="90.72" r="1.85"/><circle class="cls-3" cx="23.65" cy="90.72" r="1.85"/><circle class="cls-3" cx="33.98" cy="90.72" r="1.85"/><circle class="cls-3" cx="44.3" cy="90.72" r="1.85"/><circle class="cls-3" cx="54.63" cy="90.72" r="1.85"/><circle class="cls-3" cx="64.96" cy="90.72" r="1.85"/><circle class="cls-3" cx="75.29" cy="90.72" r="1.85"/><circle class="cls-3" cx="85.62" cy="90.72" r="1.85"/><circle class="cls-3" cx="95.94" cy="90.72" r="1.85"/><circle class="cls-3" cx="106.27" cy="90.72" r="1.85"/><circle class="cls-3" cx="116.6" cy="90.72" r="1.85"/><circle class="cls-3" cx="126.93" cy="90.72" r="1.85"/><circle class="cls-3" cx="137.26" cy="90.72" r="1.85"/><circle class="cls-3" cx="147.58" cy="90.72" r="1.85"/><circle class="cls-3" cx="157.91" cy="90.72" r="1.85"/><circle class="cls-3" cx="168.24" cy="90.72" r="1.85"/><circle class="cls-3" cx="18.48" cy="95.89" r="1.85"/><circle class="cls-3" cx="28.81" cy="95.89" r="1.85"/><circle class="cls-3" cx="39.14" cy="95.89" r="1.85"/><circle class="cls-3" cx="49.47" cy="95.89" r="1.85"/><circle class="cls-3" cx="59.8" cy="95.89" r="1.85"/><circle class="cls-3" cx="70.12" cy="95.89" r="1.85"/><circle class="cls-3" cx="80.45" cy="95.89" r="1.85"/><circle class="cls-3" cx="90.78" cy="95.89" r="1.85"/><circle class="cls-3" cx="101.11" cy="95.89" r="1.85"/><circle class="cls-3" cx="111.44" cy="95.89" r="1.85"/><circle class="cls-3" cx="121.76" cy="95.89" r="1.85"/><circle class="cls-3" cx="132.09" cy="95.89" r="1.85"/><circle class="cls-3" cx="142.42" cy="95.89" r="1.85"/><circle class="cls-3" cx="152.75" cy="95.89" r="1.85"/><circle class="cls-3" cx="163.08" cy="95.89" r="1.85"/><circle class="cls-3" cx="173.4" cy="95.89" r="1.85"/><circle class="cls-3" cx="13.32" cy="101.05" r="1.85"/><circle class="cls-3" cx="23.65" cy="101.05" r="1.85"/><circle class="cls-3" cx="33.98" cy="101.05" r="1.85"/><circle class="cls-3" cx="44.3" cy="101.05" r="1.85"/><circle class="cls-3" cx="54.63" cy="101.05" r="1.85"/><circle class="cls-3" cx="64.96" cy="101.05" r="1.85"/><circle class="cls-3" cx="75.29" cy="101.05" r="1.85"/><circle class="cls-3" cx="85.62" cy="101.05" r="1.85"/><circle class="cls-3" cx="95.94" cy="101.05" r="1.85"/><circle class="cls-3" cx="106.27" cy="101.05" r="1.85"/><circle class="cls-3" cx="116.6" cy="101.05" r="1.85"/><circle class="cls-3" cx="126.93" cy="101.05" r="1.85"/><circle class="cls-3" cx="137.26" cy="101.05" r="1.85"/><circle class="cls-3" cx="147.58" cy="101.05" r="1.85"/><circle class="cls-3" cx="157.91" cy="101.05" r="1.85"/><circle class="cls-3" cx="168.24" cy="101.05" r="1.85"/><circle class="cls-3" cx="18.48" cy="106.21" r="1.85"/><circle class="cls-3" cx="28.81" cy="106.21" r="1.85"/><circle class="cls-3" cx="39.14" cy="106.21" r="1.85"/><circle class="cls-3" cx="49.47" cy="106.21" r="1.85"/><circle class="cls-3" cx="59.8" cy="106.21" r="1.85"/><circle class="cls-3" cx="70.12" cy="106.21" r="1.85"/><circle class="cls-3" cx="80.45" cy="106.21" r="1.85"/><circle class="cls-3" cx="90.78" cy="106.21" r="1.85"/><circle class="cls-3" cx="101.11" cy="106.21" r="1.85"/><circle class="cls-3" cx="111.44" cy="106.21" r="1.85"/><circle class="cls-3" cx="121.76" cy="106.21" r="1.85"/><circle class="cls-3" cx="132.09" cy="106.21" r="1.85"/><circle class="cls-3" cx="142.42" cy="106.21" r="1.85"/><circle class="cls-3" cx="152.75" cy="106.21" r="1.85"/><circle class="cls-3" cx="163.08" cy="106.21" r="1.85"/><circle class="cls-3" cx="173.4" cy="106.21" r="1.85"/><circle class="cls-3" cx="13.32" cy="111.38" r="1.85"/><circle class="cls-3" cx="23.65" cy="111.38" r="1.85"/><circle class="cls-3" cx="33.98" cy="111.38" r="1.85"/><circle class="cls-3" cx="44.3" cy="111.38" r="1.85"/><circle class="cls-3" cx="54.63" cy="111.38" r="1.85"/><circle class="cls-3" cx="64.96" cy="111.38" r="1.85"/><circle class="cls-3" cx="75.29" cy="111.38" r="1.85"/><circle class="cls-3" cx="85.62" cy="111.38" r="1.85"/><circle class="cls-3" cx="95.94" cy="111.38" r="1.85"/><circle class="cls-3" cx="106.27" cy="111.38" r="1.85"/><circle class="cls-3" cx="116.6" cy="111.38" r="1.85"/><circle class="cls-3" cx="126.93" cy="111.38" r="1.85"/><circle class="cls-3" cx="137.26" cy="111.38" r="1.85"/><circle class="cls-3" cx="147.58" cy="111.38" r="1.85"/><circle class="cls-3" cx="157.91" cy="111.38" r="1.85"/><circle class="cls-3" cx="168.24" cy="111.38" r="1.85"/></g></g></symbol><symbol id="pokebag_logotype" data-name="pokebag logotype" viewBox="0 0 458.49 103.68"><path class="cls-9" d="M27,7.49c18.89,0,30.23,10.26,30.23,25.7S45.88,58.88,27,58.88H22.56V80.47A1.67,1.67,0,0,1,20.83,82H1.51A1.62,1.62,0,0,1,0,80.47V9.11A1.65,1.65,0,0,1,1.51,7.49Zm1,32.07a6.07,6.07,0,0,0,6.37-6.37A6.06,6.06,0,0,0,28,26.82H22.35V39.56Z"/><path class="cls-9" d="M125.66,52.29c0,18.79-12.74,31.31-31.74,31.31S62.18,71.08,62.18,52.4,74.92,21.1,93.92,21.1,125.66,33.62,125.66,52.29Zm-42.43.11c0,7,4.32,11.77,10.69,11.77s10.69-4.75,10.69-11.88-4.32-11.76-10.69-11.76S83.23,45.28,83.23,52.4Z"/><path class="cls-9" d="M154.48,3.71a1.64,1.64,0,0,1,1.62,1.52V41.07l10-17.17a3,3,0,0,1,2.49-1.29h21.59c.86,0,1.19.54.75,1.29L175,50.35l19.54,30.34c.54.75.1,1.29-.76,1.29h-23a2.94,2.94,0,0,1-2.27-1.29L156.1,59.31v21A1.65,1.65,0,0,1,154.48,82h-19a1.65,1.65,0,0,1-1.61-1.62V5.23a1.64,1.64,0,0,1,1.61-1.52Z"/><path class="cls-9" d="M248.62,75.94c.22.75,0,1.18-.75,1.62-5.73,3.77-14,6-22.35,6-19.11,0-31.85-12.52-31.85-31.2S206.19,21.1,225,21.1c17.92,0,28.5,11.55,28.5,31.19a25,25,0,0,1-.43,4.86,1.41,1.41,0,0,1-1.62,1.3H216.77s0,6.8,9.07,6.8a41,41,0,0,0,16.52-3.56,1.15,1.15,0,0,1,1.62.86ZM212.56,14.08A1.71,1.71,0,0,1,213,11.7L232.43.26a1.44,1.44,0,0,1,2.16.76L238.8,8.9a1.45,1.45,0,0,1-.87,2.16l-21.05,8.63a1.73,1.73,0,0,1-2.26-1.19Zm19.44,33c0-4.75-2.92-7.88-7.24-7.88-4.85,0-8.09,3.13-8.09,7.88Z"/><path class="cls-9" d="M283.92,25.2c3.24-2.59,8.1-4.1,13.17-4.1,17.06,0,28.5,12.52,28.5,31.19S314.15,83.6,297.09,83.6c-7.23,0-14.14-2.81-18.24-7.12l-1.62,3.88c-.43,1-1,1.62-1.73,1.62H263.3a1.66,1.66,0,0,1-1.62-1.62V5.23a1.65,1.65,0,0,1,1.62-1.52h19a1.64,1.64,0,0,1,1.62,1.52Zm0,34a9.1,9.1,0,0,0,8.53,5.94c5.94,0,9.93-5.18,9.93-13,0-7.56-4-12.53-9.93-12.53a9.11,9.11,0,0,0-8.53,5.94Z"/><path class="cls-9" d="M337.58,29.3a1.68,1.68,0,0,1,.54-2.05c6.15-3.89,14.79-6.15,23.42-6.15,18.68,0,27.32,9.82,27.32,31.3v28A1.66,1.66,0,0,1,387.24,82H373.63a1.75,1.75,0,0,1-1.72-1.62l-.76-2.91c-3.56,3.78-10.69,6.15-18.57,6.15-12.41,0-20.62-8-20.51-19.86.11-10.58,8.31-17.6,20.51-17.6,6.26,0,11.88,2.27,14,5.72V47.33c0-4.64-3.35-7.67-8.32-7.67a28.28,28.28,0,0,0-12.95,3.46c-.54.32-1.19-.11-1.62-.87Zm29,33.25a8,8,0,0,0-5.94-2.7c-2.7,0-4.53,1.51-4.53,3.89s1.83,3.88,4.53,3.88a8,8,0,0,0,5.94-2.69Z"/><path class="cls-9" d="M436.25,74.21c-1.73,3.45-6.91,5.72-13,5.72-15.76,0-26.23-11.33-26.23-28.39,0-19.11,9.72-30.44,26.23-30.44,8.32,0,14.9,2.26,17.71,6.15l1.94-3a3.28,3.28,0,0,1,2.48-1.62h11.45a1.53,1.53,0,0,1,1.62,1.62V76.48c0,16.3-14.79,27.2-33.15,27.2-10.68,0-20.18-2.48-25.47-6.8a1.69,1.69,0,0,1-.65-1.84l5.51-13.38c.32-.76,1-1.08,1.61-.65,4.65,3.78,11.77,6,19,6,6.81,0,10.91-3.57,10.91-9.72Zm0-28.07a7.69,7.69,0,0,0-7.45-4.86c-5.4,0-8.53,3.78-8.53,10.26S423.4,61.9,428.8,61.9A7.69,7.69,0,0,0,436.25,57Z"/></symbol><symbol id="pokebag_logotype_white_" data-name="pokebag logotype (white)" viewBox="0 0 458 104"><use width="458.49" height="103.68" xlink:href="#pokebag_logotype"/></symbol></defs><use width="175.25" height="195.06" xlink:href="#pokebag_logoform"/><use width="458" height="104" transform="translate(198.66 15.39) scale(1.83)" xlink:href="#pokebag_logotype_white_"/></svg>